<svg xmlns="http://www.w3.org/2000/svg" version="1.1" xmlns:xlink="http://www.w3.org/1999/xlink" width="2000" height="2000" viewBox="0 0 2000 2000"><rect width="2000" height="2000" x="0" y="0" id="background" stroke="transparent" fill="#000000"></rect><svg xml:space="preserve" width="1500" height="1500" data-version="2" data-id="lg_9xIWRpPFU6g507QnYm" viewBox="0 0 566 98" x="250" y="250">
    <circle r="50" fill="#FF851B" transform="matrix(.9638 0 0 .9638 53.94 49)"></circle>
    <path fill="#FFF" d="M132.72 85.5V12.37h12.78V85.5Z" paint-order="stroke"></path>
    <rect width="12.78" height="73.13" x="-6.39" y="-36.565" fill="none" rx="0" ry="0" transform="matrix(1 0 0 1 139.61 49.435)"></rect>
    <path fill="#FFF" d="M183.4 86.84q-6.49 0-11.59-1.85-5.1-1.86-8.6-5.41-3.5-3.56-5.35-8.6Q156 65.93 156 59.54q0-6.38 1.8-11.74 1.81-5.35 5.21-9.27 3.39-3.91 8.29-6.07 4.89-2.17 11.17-2.17 5.87 0 10.51 1.96 4.63 1.96 7.83 5.82 3.19 3.86 4.73 9.58 1.55 5.71 1.03 13.23l-42.12.31v-7.52l34.61-.31-4.54 4.23q.62-5.87-.92-9.63-1.55-3.76-4.43-5.57-2.89-1.8-6.59-1.8-4.23 0-7.42 2.22-3.19 2.21-4.89 6.38-1.7 4.17-1.7 10.15 0 8.96 3.96 13.39 3.97 4.43 10.87 4.43 3.09 0 5.2-.78 2.11-.77 3.55-2.06 1.45-1.28 2.32-2.93.88-1.65 1.39-3.5l11.33 2.57q-.82 3.81-2.68 6.8-1.85 2.99-4.78 5.15-2.94 2.16-6.96 3.3-4.01 1.13-9.37 1.13" paint-order="stroke"></path>
    <rect width="51.19" height="56.55" x="-25.595" y="-28.275" fill="none" rx="0" ry="0" transform="matrix(1 0 0 1 182.095 59.065)"></rect>
    <path fill="#FFF" d="M236.24 86.74q-8.55 0-12.57-4.59-4.01-4.58-4.01-14.26V42.03h-7.94l.21-10.3h5.25q2.99 0 4.43-.92 1.44-.93 1.75-3.3l1.24-7.83h7.52v11.95h14.21v10.82h-14.21v24.92q0 3.81 1.8 5.56 1.8 1.76 5.41 1.76 1.96 0 3.86-.47 1.91-.46 3.55-1.59v12.36q-3.19 1.03-5.81 1.39-2.63.36-4.69.36" paint-order="stroke"></path>
    <rect width="35.02" height="67.06" x="-17.51" y="-33.53" fill="none" rx="0" ry="0" transform="matrix(1 0 0 1 229.73 53.71)"></rect>
    <path fill="#FFF" d="M277.34 86.84q-5.46 0-9.84-1.08t-7.47-3.09q-3.09-2.01-4.94-4.84-1.86-2.84-2.27-6.34l10.2-3.81q.2 2.68 2.06 4.79 1.85 2.11 5.15 3.35 3.29 1.23 7.93 1.23 5.15 0 7.98-1.59 2.83-1.6 2.83-4.59 0-2.16-1.54-3.45-1.55-1.28-4.48-2.16-2.94-.87-7.06-1.7-3.81-.82-7.67-1.9-3.86-1.09-7.11-2.89-3.24-1.8-5.25-4.74-2.01-2.93-2.01-7.46 0-4.95 2.63-8.55 2.62-3.61 7.62-5.67t12.1-2.06q6.7 0 11.59 1.86 4.89 1.85 7.98 5.3 3.09 3.45 3.92 8.19l-10.72 3.4q-.3-2.89-1.95-4.89-1.65-2.01-4.43-3.04-2.78-1.03-6.49-1.03-4.74 0-7.42 1.65-2.67 1.64-2.67 4.42 0 2.27 1.7 3.61 1.69 1.34 4.73 2.16 3.04.83 6.96 1.65 4.12.82 7.98 1.91 3.86 1.08 6.95 2.83 3.09 1.75 4.94 4.58 1.86 2.83 1.86 7.26 0 5.36-2.89 9.12-2.88 3.76-8.18 5.66-5.31 1.91-12.72 1.91" paint-order="stroke"></path>
    <rect width="48.31" height="56.55" x="-24.155" y="-28.275" fill="none" rx="0" ry="0" transform="matrix(1 0 0 1 277.475 59.065)"></rect>
    <path fill="#FFF" d="M311.02 85.5V31.63h10.91l-.2 18.54h1.85q.93-6.59 2.89-10.97 1.95-4.38 5.46-6.59 3.5-2.21 8.65-2.21 1.03 0 2.21.1 1.19.1 2.63.51l-.52 13.7q-1.64-.62-3.34-.87-1.7-.26-3.15-.26-4.01 0-6.95 2.06-2.93 2.06-4.74 5.82-1.8 3.76-2.73 8.91V85.5Z" paint-order="stroke"></path>
    <rect width="34.4" height="55.1" x="-17.2" y="-27.55" fill="none" rx="0" ry="0" transform="matrix(1 0 0 1 328.72 58.45)"></rect>
    <path fill="#FFF" d="M371.58 86.84q-9.27 0-13.96-6.34-4.68-6.33-4.68-19.2V31.63h13.08v28.22q0 8.14 2.47 12.16 2.47 4.01 7.62 4.01 2.99 0 5.26-1.49 2.26-1.49 3.91-4.22 1.65-2.73 2.63-6.34.97-3.6 1.18-7.93V31.63h12.98V85.5h-10.71l.2-16.99h-1.85q-1.34 6.48-3.76 10.5t-5.92 5.92q-3.51 1.91-8.45 1.91" paint-order="stroke"></path>
    <rect width="49.13" height="55.21" x="-24.565" y="-27.605" fill="none" rx="0" ry="0" transform="matrix(1 0 0 1 378.005 59.735)"></rect>
    <path fill="#FFF" d="M415.66 85.5V31.63h10.82l-.31 16.48h1.85q1.45-6.08 3.87-9.99t6.23-5.87q3.81-1.96 8.86-1.96 9.16 0 13.95 6.49 4.79 6.49 4.79 20.09V85.5h-13.08V58.21q0-8.76-2.62-12.83-2.63-4.07-7.78-4.07-4.33 0-7.31 2.73-2.99 2.73-4.59 7.21-1.59 4.48-1.7 9.84V85.5Z" paint-order="stroke"></path>
    <rect width="50.06" height="55.21" x="-25.03" y="-27.605" fill="none" rx="0" ry="0" transform="matrix(1 0 0 1 441.19 58.395)"></rect>
    <path fill="#FFF" d="M478.39 85.5V31.63h12.98V85.5Zm6.49-62.31q-3.91 0-6.02-1.7-2.12-1.7-2.12-4.9 0-3.19 2.12-4.89 2.11-1.7 6.02-1.7 4.12 0 6.18 1.65 2.06 1.65 2.06 4.94 0 3.2-2.11 4.9-2.11 1.7-6.13 1.7" paint-order="stroke"></path>
    <rect width="16.38" height="75.5" x="-8.19" y="-37.75" fill="none" rx="0" ry="0" transform="matrix(1 0 0 1 485.43 48.25)"></rect>
    <path fill="#FFF" d="M523.81 86.74q-8.54 0-12.56-4.59-4.02-4.58-4.02-14.26V42.03h-7.93l.21-10.3h5.25q2.99 0 4.43-.92 1.44-.93 1.75-3.3l1.24-7.83h7.51v11.95h14.22v10.82h-14.22v24.92q0 3.81 1.81 5.56 1.8 1.76 5.4 1.76 1.96 0 3.87-.47 1.9-.46 3.55-1.59v12.36q-3.19 1.03-5.82 1.39-2.63.36-4.69.36" paint-order="stroke"></path>
    <rect width="35.02" height="67.06" x="-17.51" y="-33.53" fill="none" rx="0" ry="0" transform="matrix(1 0 0 1 517.31 53.71)"></rect>
    <path fill="#FF851B" d="M550.39 86.74q-4.22 0-6.39-1.86-2.16-1.85-2.16-5.77 0-4.01 2.16-5.87 2.17-1.85 6.39-1.85 4.43 0 6.64 1.85 2.22 1.86 2.22 5.87 0 7.63-8.86 7.63" paint-order="stroke"></path>
    <rect width="17.41" height="15.35" x="-8.705" y="-7.675" fill="none" rx="0" ry="0" transform="matrix(1 0 0 1 551.045 79.565)"></rect>
    <path d="M87.94 53.184v-8.5L77.78 40.45a22.34 22.34 0 0 0-.946-2.324l4.1-10.21-6.01-6.01-10.119 4.167a23.671 23.671 0 0 0-2.373-.98L58.124 15h-8.5l-4.2 10.061a25.41 25.41 0 0 0-2.466.996l-10.102-4.059-6.01 6.01 4.118 10.01c-.399.823-.722 1.66-1.03 2.524l-9.994 4.275v8.5l10.003 4.167c.307.864.639 1.702 1.037 2.524l-4.042 10.076 6.01 6.01 10.036-4.133c.805.382 1.627.688 2.473.979l4.3 10.06h8.5l4.209-10.11a28.327 28.327 0 0 0 2.365-.979l10.193 4.084 6.01-6.01-4.183-10.143c.357-.764.647-1.536.93-2.325zM53.874 61.75c-7.04 0-12.75-5.71-12.75-12.75 0-7.039 5.71-12.75 12.75-12.75s12.75 5.711 12.75 12.75c0 7.04-5.71 12.75-12.75 12.75"></path>
</svg></svg>